<?xml version="1.0" standalone="no"?>
<!DOCTYPE svg PUBLIC "-//W3C//DTD SVG 20010904//EN"
 "http://www.w3.org/TR/2001/REC-SVG-20010904/DTD/svg10.dtd">
<svg version="1.0" xmlns="http://www.w3.org/2000/svg"
 width="300.000000pt" height="55.000000pt" viewBox="0 0 300.000000 55.000000"
 preserveAspectRatio="xMidYMid meet">
<metadata>
Created by potrace 1.10, written by Peter Selinger 2001-2011
</metadata>
<g transform="translate(0.000000,55.000000) scale(0.100000,-0.100000)"
fill="#000000" stroke="none">
<path d="M150 397 c-47 -16 -76 -72 -58 -112 9 -20 9 -31 0 -46 -53 -85 105
-162 193 -94 38 28 47 61 29 103 -7 17 -10 48 -7 70 5 35 2 41 -24 60 -38 27
-90 34 -133 19z m120 -54 c20 -26 21 -28 4 -32 -10 -2 -23 4 -30 14 -18 25
-89 17 -89 -10 0 -16 11 -23 49 -32 72 -18 105 -59 78 -99 -37 -55 -172 -34
-172 27 0 26 18 24 46 -6 26 -28 74 -34 94 -10 20 24 4 42 -50 55 -57 14 -80
32 -80 62 0 38 29 58 81 58 40 0 51 -4 69 -27z"/>
<path d="M386 389 c-25 -20 -26 -24 -26 -128 0 -140 6 -147 124 -143 60 3 84
7 94 20 16 21 15 42 -4 63 -13 14 -13 21 -3 37 11 17 11 25 -1 46 -12 23 -11
28 3 44 22 25 21 34 -6 60 -33 31 -142 32 -181 1z m174 -34 c0 -12 -14 -15
-65 -15 l-65 0 0 -32 0 -33 62 0 c40 0 63 -4 65 -12 4 -10 -13 -13 -61 -13
l-66 0 0 -35 0 -35 70 0 c56 0 70 -3 70 -15 0 -12 -17 -15 -90 -15 l-90 0 0
110 0 110 85 0 c69 0 85 -3 85 -15z"/>
<path d="M717 395 c-21 -7 -39 -15 -40 -17 -1 -1 -10 -13 -20 -25 -47 -55 -37
-153 20 -203 29 -26 42 -30 89 -30 50 0 59 3 90 34 40 40 42 54 13 90 -20 25
-20 28 -5 45 23 26 20 54 -11 83 -35 32 -87 41 -136 23z m119 -50 c24 -25 25
-45 1 -45 -7 0 -18 9 -25 20 -15 25 -68 27 -94 3 -24 -21 -25 -99 -1 -125 27
-30 103 -17 103 18 0 18 31 15 37 -3 3 -7 -7 -24 -21 -38 -27 -27 -90 -34
-127 -15 -55 30 -65 144 -14 187 38 33 107 32 141 -2z m-27 -64 l23 -18 -28
-22 c-34 -26 -58 -24 -62 7 -8 52 22 67 67 33z"/>
<path d="M1245 388 c-28 -25 -29 -27 -28 -126 0 -84 3 -105 18 -122 26 -28 49
-25 80 11 l26 32 33 -32 c38 -37 70 -39 92 -6 11 17 10 26 -5 61 -16 35 -17
44 -5 65 21 37 17 66 -14 100 -25 28 -35 32 -98 36 -64 5 -73 3 -99 -19z m183
-51 c12 -24 11 -31 -2 -53 -9 -13 -23 -24 -31 -24 -16 0 -21 -16 -7 -22 4 -1
22 -22 40 -45 33 -42 33 -43 10 -43 -16 0 -34 14 -58 48 -25 33 -43 48 -63 50
-26 3 -27 2 -27 -47 0 -44 -3 -51 -20 -51 -19 0 -20 7 -20 110 l0 111 82 -3
c80 -3 83 -4 96 -31z"/>
<path d="M1290 310 l0 -36 53 6 c47 5 52 7 52 30 0 23 -5 25 -52 30 l-53 6 0
-36z"/>
<path d="M1536 389 c-25 -20 -26 -24 -26 -124 0 -86 3 -107 19 -126 18 -22 26
-24 97 -21 42 2 85 7 96 13 22 12 23 46 2 70 -13 14 -13 22 -4 39 9 17 9 28 0
45 -10 19 -9 27 6 50 18 27 18 28 -10 51 -37 33 -140 35 -180 3z m174 -34 c0
-12 -14 -15 -65 -15 l-65 0 0 -32 0 -33 60 3 c50 3 60 1 60 -12 0 -13 -12 -16
-60 -16 l-60 0 0 -35 0 -35 70 0 c56 0 70 -3 70 -15 0 -12 -17 -15 -90 -15
l-90 0 0 110 0 110 85 0 c69 0 85 -3 85 -15z"/>
<path d="M1806 387 c-22 -22 -24 -33 -25 -123 -1 -93 0 -101 22 -123 20 -18
36 -22 86 -22 41 -1 71 5 87 16 88 57 84 208 -7 257 -51 27 -133 25 -163 -5z
m167 -37 c30 -24 42 -76 27 -129 -15 -55 -41 -71 -117 -71 l-63 0 0 110 0 110
64 0 c48 0 69 -5 89 -20z"/>
<path d="M1850 260 l0 -80 40 0 c55 0 80 26 80 83 0 56 -22 77 -78 77 l-42 0
0 -80z m75 -1 c0 -24 -5 -34 -15 -34 -16 0 -25 37 -16 62 10 26 31 8 31 -28z"/>
<path d="M2413 395 c-49 -21 -69 -58 -56 -106 8 -30 7 -43 -3 -58 -33 -46 30
-111 107 -111 60 0 91 14 112 50 21 35 21 53 1 91 -12 24 -13 34 -3 45 18 22
-7 70 -46 88 -40 19 -70 20 -112 1z m115 -41 c12 -8 22 -22 22 -30 0 -19 -36
-18 -44 2 -8 22 -80 15 -84 -8 -4 -18 18 -31 71 -43 32 -6 67 -38 67 -60 0
-30 -47 -65 -85 -65 -54 0 -104 32 -105 68 0 20 37 14 43 -8 10 -39 107 -39
107 0 0 21 -21 33 -73 45 -32 6 -67 38 -67 60 0 8 9 24 20 35 25 25 95 27 128
4z"/>
<path d="M946 384 c-16 -16 -18 -27 -19 -120 -2 -98 40 -144 130 -144 84 1
115 43 114 159 -1 94 -6 109 -38 117 -39 10 -57 -17 -63 -94 -4 -51 -9 -67
-20 -67 -11 0 -16 15 -18 65 -4 89 -43 127 -86 84z m54 -98 c0 -93 9 -110 57
-104 40 4 55 39 50 121 -4 60 -2 67 14 67 17 0 19 -9 19 -85 0 -78 -2 -88 -25
-110 -34 -35 -96 -35 -130 0 -23 22 -25 32 -25 110 0 78 2 85 20 85 18 0 20
-7 20 -84z"/>
<path d="M2147 382 c-19 -21 -87 -188 -87 -213 0 -19 31 -49 52 -49 8 0 25 11
38 25 30 32 50 32 80 0 29 -31 64 -32 84 -4 12 18 12 27 1 63 -18 59 -64 158
-82 179 -21 22 -65 22 -86 -1z m104 -112 c22 -52 43 -101 46 -107 3 -8 -3 -13
-16 -13 -15 0 -25 9 -32 30 -10 28 -15 30 -59 30 -46 0 -49 -2 -55 -30 -5 -23
-12 -30 -29 -30 -23 0 -23 0 14 93 20 50 40 100 43 110 4 12 15 17 28 15 15
-2 30 -26 60 -98z"/>
<path d="M2172 291 c-16 -52 -17 -51 23 -51 l36 0 -16 30 c-8 16 -15 36 -15
45 0 29 -17 15 -28 -24z"/>
<path d="M2645 384 c-17 -13 -20 -29 -23 -113 -4 -92 -2 -100 21 -127 22 -25
27 -27 50 -17 16 8 29 24 35 44 10 42 29 48 38 12 14 -59 56 -80 88 -44 13 15
18 41 20 115 3 83 1 100 -16 121 -11 14 -27 25 -37 25 -19 0 -51 -30 -51 -47
0 -6 -6 -16 -14 -22 -12 -10 -16 -8 -21 11 -17 54 -52 71 -90 42z m52 -59 l-7
-45 59 0 59 0 -6 45 c-4 41 -3 45 17 45 20 0 21 -4 21 -110 0 -105 -1 -110
-21 -110 -18 0 -20 5 -18 50 2 27 0 50 -4 50 -4 0 -29 0 -56 0 l-48 0 5 -50
c4 -46 3 -50 -17 -50 -20 0 -21 4 -21 110 0 106 1 110 21 110 20 0 21 -4 16
-45z"/>
</g>
</svg>
